<?xml version="1.0" encoding="UTF-8" standalone="no"?>
<svg width="188px" height="40px" viewBox="0 0 188 40" version="1.1" xmlns="http://www.w3.org/2000/svg" xmlns:xlink="http://www.w3.org/1999/xlink" xmlns:sketch="http://www.bohemiancoding.com/sketch/ns">
    <title>logo</title>
    <description>Created with Sketch (http://www.bohemiancoding.com/sketch)</description>
    <defs></defs>
    <g id="Page 1" stroke="none" stroke-width="1" fill="none" fill-rule="evenodd">
        <g id="Group">
            <g id="H" transform="translate(0.438080, 0.941736)">
                <g id="Page-1">
                    <g id="Rectangle-10-+-H">
                        <path d="M0,0 L0,37.6746702 L40.5086056,37.6746702 L40.5086056,0 L0,0 Z M0,0" id="Rectangle-10" fill="#FFFFFF"></path>
                        <g id="H" transform="translate(8.501806, 7.001487)" fill="#0A9DFF">
                            <path d="M16.0033998,8.33510404 L16.0033998,0 L23.5049934,0 L23.5049934,23.8383975 L16.0033998,23.8383975 L16.0033998,15.3365914 L9.16861444,15.3365914 L9.16861444,8.33510404 L16.0033998,8.33510404 L16.0033998,8.33510404 Z M16.0033998,8.33510404" id="Rectangle-5"></path>
                            <path d="M0,8.33510404 L0,15.3365914 L7.50159363,15.3365914 L7.50159363,8.33510404 L0,8.33510404 Z M0,8.33510404" id="Rectangle-6"></path>
                            <path d="M0,16.8369102 L0,23.8383975 L7.50159363,23.8383975 L7.50159363,16.8369102 L0,16.8369102 Z M0,16.8369102" id="Rectangle-6"></path>
                            <path d="M0,0 L0,7.00148739 L7.50159363,7.00148739 L7.50159363,0 L0,0 Z M0,0" id="Rectangle-6"></path>
                        </g>
                    </g>
                </g>
            </g>
            <path d="M66.4130845,31.8507316 L61.3734525,31.8507316 L61.3734525,21.5594443 L53.2676367,21.5594443 L53.2676367,31.8507316 L48.2116952,31.8507316 L48.2116952,8.00625923 L53.2676367,8.00625923 L53.2676367,17.3515962 L61.3734525,17.3515962 L61.3734525,8.00625923 L66.4130845,8.00625923 Z M70.3224799,8.9032811 C70.3224799,8.43574009 70.3931537,8.0470345 70.5345033,7.73715266 C70.6758529,7.42727083 70.8688466,7.17719451 71.1134901,6.98691619 C71.3581337,6.79663787 71.6462651,6.66344504 71.977893,6.58733372 C72.3095209,6.51122239 72.6601714,6.4731673 73.029855,6.4731673 C73.3995386,6.4731673 73.7474709,6.51122239 74.0736623,6.58733372 C74.3998537,6.66344504 74.6852669,6.79663787 74.9299104,6.98691619 C75.174554,7.17719451 75.3702659,7.42727083 75.517052,7.73715266 C75.6638382,8.0470345 75.7372301,8.43574009 75.7372301,8.9032811 C75.7372301,9.35994907 75.6638382,9.74593644 75.517052,10.0612548 C75.3702659,10.3765731 75.174554,10.6293677 74.9299104,10.819646 C74.6852669,11.0099243 74.3998537,11.1458354 74.0736623,11.2273832 C73.7474709,11.3089311 73.3995386,11.3497044 73.029855,11.3497044 C72.6601714,11.3497044 72.3095209,11.3089311 71.977893,11.2273832 C71.6462651,11.1458354 71.3581337,11.0099243 71.1134901,10.819646 C70.8688466,10.6293677 70.6758529,10.3765731 70.5345033,10.0612548 C70.3931537,9.74593644 70.3224799,9.35994907 70.3224799,8.9032811 Z M75.5088973,31.8507316 L70.5345033,31.8507316 L70.5345033,13.6167233 L75.5088973,13.6167233 Z M88.8125581,32.1769214 C88.2145406,32.1769214 87.679051,32.1116841 87.2060735,31.9812075 C86.733096,31.8507309 86.3117717,31.6767648 85.9420881,31.4593039 C85.5724046,31.2418429 85.246218,30.9944848 84.9635188,30.7172221 C84.6808196,30.4399594 84.4253068,30.1491098 84.1969729,29.8446645 L83.936021,29.8446645 C83.9795132,30.2252211 84.0230048,30.5840263 84.066497,30.9210907 C84.0991161,31.20379 84.1290165,31.4946396 84.1561991,31.7936484 C84.1833818,32.0926572 84.1969729,32.323706 84.1969729,32.4868017 L84.1969729,39.875 L79.2225788,39.875 L79.2225788,13.6167233 L83.267332,13.6167233 L83.96864,15.9815992 L84.1969729,15.9815992 C84.4253068,15.6119156 84.6862561,15.2639833 84.9798283,14.9377919 C85.2734006,14.6116005 85.6131782,14.3261873 85.9991714,14.0815437 C86.3851645,13.8369002 86.8227981,13.6411883 87.3120852,13.4944021 C87.8013723,13.347616 88.3450165,13.2742241 88.9430341,13.2742241 C89.8889891,13.2742241 90.7479469,13.4753724 91.5199333,13.8776751 C92.2919196,14.2799779 92.9551655,14.8779865 93.5096909,15.6717189 C94.0642163,16.4654513 94.4936952,17.4494473 94.7981405,18.6237363 C95.1025858,19.7980254 95.2548062,21.1571358 95.2548062,22.7011085 C95.2548062,24.2559542 95.0971493,25.6232193 94.781831,26.8029449 C94.4665126,27.9826704 94.0234426,28.9721029 93.4526077,29.7712718 C92.8817727,30.5704407 92.2022175,31.1711676 91.4139216,31.5734703 C90.6256257,31.975773 89.7585132,32.1769214 88.8125581,32.1769214 Z M87.2631567,17.2537393 C86.7086313,17.2537393 86.2383791,17.3543135 85.852386,17.5554648 C85.4663928,17.7566162 85.1537974,18.0583387 84.9145904,18.4606414 C84.6753833,18.8629442 84.5014172,19.3712515 84.3926867,19.9855786 C84.2839563,20.5999058 84.218719,21.3147979 84.1969729,22.1302764 L84.1969729,22.6684895 C84.1969729,23.5492063 84.2486191,24.3320539 84.351913,25.0170559 C84.4552069,25.7020578 84.6264549,26.2756024 84.8656619,26.7377069 C85.1048689,27.1998114 85.4229008,27.5504619 85.819767,27.7896689 C86.2166332,28.028876 86.7086312,28.1484777 87.2957757,28.1484777 C88.285223,28.1484777 89.0109879,27.6782255 89.4730924,26.7377069 C89.9351969,25.7971884 90.1662457,24.4299232 90.1662457,22.6358705 C90.1662457,20.8418178 89.9351969,19.4962984 89.4730924,18.5992721 C89.0109879,17.7022457 88.2743501,17.2537393 87.2631567,17.2537393 Z M105.60645,32.1769214 C104.301684,32.1769214 103.124694,31.9975188 102.075445,31.6387082 C101.026196,31.2798977 100.129183,30.7226624 99.3843797,29.9669857 C98.6395759,29.2113089 98.0687496,28.2436223 97.6718833,27.0638967 C97.2750171,25.8841711 97.076587,24.4734145 97.076587,22.8315844 C97.076587,21.0157856 97.2804536,19.4963001 97.6881928,18.2730823 C98.0959321,17.0498646 98.6721949,16.0685868 99.4169986,15.3292196 C100.161802,14.5898524 101.058815,14.0625176 102.108064,13.7471992 C103.157313,13.4318809 104.32343,13.2742241 105.60645,13.2742241 C106.541532,13.2742241 107.471163,13.3883893 108.395372,13.6167233 C109.319581,13.8450573 110.189412,14.1658074 111.00489,14.5789831 L109.569655,18.3627845 C108.852034,18.0474661 108.161606,17.7892352 107.49835,17.5880838 C106.835094,17.3869324 106.204467,17.2863583 105.60645,17.2863583 C104.399541,17.2863583 103.524274,17.7457376 102.980622,18.66451 C102.43697,19.5832825 102.165147,20.9614205 102.165147,22.7989654 C102.165147,24.6256373 102.43697,25.9738748 102.980622,26.8437186 C103.524274,27.7135623 104.377796,28.1484777 105.541212,28.1484777 C106.487167,28.1484777 107.346124,28.0261577 108.118111,27.7815142 C108.890097,27.5368706 109.678381,27.2242752 110.482987,26.8437186 L110.482987,30.9863287 C110.080684,31.1820435 109.68926,31.3560097 109.308703,31.5082323 C108.928147,31.660455 108.544878,31.7854932 108.158885,31.8833506 C107.772891,31.981208 107.370595,32.0546 106.951982,32.1035287 C106.53337,32.1524574 106.084864,32.1769214 105.60645,32.1769214 Z M129.005684,31.8507316 L124.03129,31.8507316 L124.03129,21.2006355 C124.03129,19.8849969 123.827423,18.8982827 123.419684,18.2404633 C123.011945,17.582644 122.384036,17.2537393 121.535938,17.2537393 C120.894428,17.2537393 120.356221,17.3842139 119.921299,17.645167 C119.486377,17.9061201 119.138445,18.2921075 118.877491,18.8031407 C118.616538,19.3141739 118.431699,19.9448011 118.322969,20.6950414 C118.214238,21.4452816 118.159874,22.3042394 118.159874,23.2719406 L118.159874,31.8507316 L113.18548,31.8507316 L113.18548,6.4731673 L118.159874,6.4731673 L118.159874,11.6432752 C118.159874,12.0999432 118.149001,12.5810683 118.127255,13.0866649 C118.105509,13.5922616 118.078327,14.0570774 118.045708,14.4811262 C118.002215,14.9812864 117.96416,15.4705661 117.931541,15.9489802 L118.192493,15.9489802 C118.725272,15.0030251 119.404827,14.3207517 120.231179,13.9021394 C121.057531,13.4835271 121.992599,13.2742241 123.036411,13.2742241 C123.938874,13.2742241 124.757058,13.4019804 125.490989,13.657497 C126.22492,13.9130136 126.852829,14.3125921 127.374735,14.8562444 C127.896641,15.3998968 128.298938,16.0930431 128.581637,16.9357042 C128.864336,17.7783654 129.005684,18.7868253 129.005684,19.9611144 Z M143.206367,31.8507316 L142.244107,29.3716893 L142.097321,29.3716893 C141.738511,29.8609764 141.379706,30.2823007 141.020895,30.6356747 C140.662085,30.9890487 140.270661,31.2798984 139.846612,31.5082323 C139.422563,31.7365663 138.946874,31.905096 138.419532,32.0138265 C137.892189,32.122557 137.280589,32.1769214 136.584714,32.1769214 C135.845347,32.1769214 135.160355,32.0600379 134.529719,31.8262674 C133.899082,31.5924969 133.35272,31.2391281 132.890615,30.7661506 C132.428511,30.2931731 132.066987,29.6951645 131.806034,28.9721069 C131.545081,28.2490492 131.414606,27.3928097 131.414606,26.4033624 C131.414606,24.4679601 132.034361,23.0408941 133.273888,22.1221216 C134.513415,21.2033492 136.367242,20.6950419 138.835424,20.5971844 L141.738513,20.4993275 L141.738513,19.1293305 C141.738513,18.3790902 141.521055,17.8245732 141.086133,17.4657626 C140.651211,17.1069521 140.04233,16.9275495 139.25947,16.9275495 C138.476611,16.9275495 137.712791,17.0417148 136.967987,17.2700488 C136.223183,17.4983827 135.475673,17.8028235 134.725433,18.1833801 L133.110793,14.8888634 C134.024129,14.3778302 135.035307,13.9755335 136.144358,13.6819613 C137.253409,13.388389 138.416807,13.2416051 139.634589,13.2416051 C141.907055,13.2416051 143.649435,13.7743764 144.86178,14.839935 C146.074124,15.9054935 146.680288,17.5255532 146.680288,19.7001626 L146.680288,31.8507316 Z M141.738513,23.4024165 L140.091254,23.4676544 C139.427998,23.4894005 138.868045,23.5763836 138.411377,23.7286063 C137.954709,23.8808289 137.587749,24.0846955 137.310486,24.3402121 C137.033224,24.5957287 136.832075,24.9001694 136.707035,25.2535434 C136.581995,25.6069175 136.519476,26.0010595 136.519476,26.4359814 C136.519476,27.1970946 136.704315,27.7380206 137.073999,28.0587755 C137.443682,28.3795304 137.927526,28.5399054 138.525543,28.5399054 C138.982211,28.5399054 139.406254,28.461077 139.797683,28.3034178 C140.189113,28.1457586 140.528891,27.9119916 140.817027,27.6021098 C141.105162,27.292228 141.330775,26.911677 141.49387,26.4604456 C141.656966,26.0092142 141.738513,25.490034 141.738513,24.9028894 Z M159.804544,13.2742241 C159.935021,13.2742241 160.079086,13.2769423 160.236746,13.2823788 C160.394405,13.2878153 160.546625,13.2986882 160.693411,13.3149978 C160.840197,13.3313073 160.976108,13.3476167 161.101148,13.3639262 C161.226189,13.3802358 161.321326,13.3992634 161.386565,13.4210094 L161.386565,18.0855232 C161.29958,18.0637771 161.179978,18.0420313 161.027756,18.0202852 C160.875533,17.9985391 160.715158,17.9795116 160.546626,17.963202 C160.378094,17.9468925 160.212282,17.9360196 160.049186,17.9305831 C159.886091,17.9251465 159.75018,17.9224283 159.641449,17.9224283 C158.99994,17.9224283 158.410086,18.0039749 157.87187,18.1670706 C157.333654,18.3301663 156.871556,18.5938338 156.485563,18.9580808 C156.09957,19.3223279 155.800566,19.8007348 155.588541,20.3933158 C155.376517,20.9858969 155.270506,21.7116619 155.270506,22.5706326 L155.270506,31.8507316 L150.296112,31.8507316 L150.296112,13.6167233 L154.063604,13.6167233 L154.797531,16.3567174 L155.042173,16.3567174 C155.303127,15.8891764 155.585822,15.4651339 155.890267,15.0845773 C156.194712,14.7040207 156.53449,14.3805524 156.90961,14.1141627 C157.28473,13.8477731 157.708772,13.6411883 158.18175,13.4944021 C158.654728,13.347616 159.195654,13.2742241 159.804544,13.2742241 Z M170.694401,28.2137156 C171.183688,28.2137156 171.648504,28.1593512 172.088862,28.0506207 C172.52922,27.9418903 172.977727,27.8059792 173.434395,27.6428835 L173.434395,31.3451374 C172.966854,31.5843445 172.387873,31.7827746 171.697434,31.9404338 C171.006996,32.098093 170.254049,32.1769214 169.43857,32.1769214 C168.644838,32.1769214 167.905482,32.0845019 167.22048,31.8996601 C166.535478,31.7148183 165.942906,31.39135 165.442745,30.9292455 C164.942585,30.467141 164.548443,29.8473866 164.260307,29.0699638 C163.972172,28.2925409 163.828106,27.3166996 163.828106,26.1424106 L163.828106,17.3515962 L161.446921,17.3515962 L161.446921,15.2476722 L164.186915,13.5841043 L165.62215,9.73506502 L168.8025,9.73506502 L168.8025,13.6167233 L173.238681,13.6167233 L173.238681,17.3515962 L168.8025,17.3515962 L168.8025,26.1424106 C168.8025,26.8491586 168.976466,27.371057 169.324404,27.7081215 C169.672341,28.0451859 170.129002,28.2137156 170.694401,28.2137156 Z M187.765553,26.4359814 C187.765553,27.3928095 187.591587,28.2300215 187.24365,28.9476426 C186.895712,29.6652637 186.400996,30.2632723 185.759486,30.7416864 C185.117977,31.2201004 184.340565,31.5789056 183.427229,31.8181126 C182.513894,32.0573196 181.491842,32.1769214 180.361046,32.1769214 C179.763028,32.1769214 179.208511,32.1578938 178.697478,32.1198382 C178.186445,32.0817825 177.702601,32.0192634 177.245933,31.932279 C176.789265,31.8452947 176.348913,31.7365658 175.924865,31.6060893 C175.500816,31.4756127 175.071337,31.3125195 174.636415,31.1168046 L174.636415,27.0068135 C175.093083,27.2351475 175.574208,27.4417322 176.079805,27.626574 C176.585401,27.8114158 177.088272,27.9717909 177.588433,28.107704 C178.088593,28.243617 178.575154,28.3496277 179.048132,28.425739 C179.521109,28.5018503 179.958743,28.5399054 180.361046,28.5399054 C180.80684,28.5399054 181.187391,28.4991321 181.50271,28.4175842 C181.818028,28.3360364 182.076259,28.2218711 182.27741,28.075085 C182.478562,27.9282988 182.625346,27.7543327 182.717767,27.5531813 C182.810188,27.35203 182.856397,27.1372905 182.856397,26.9089565 C182.856397,26.6806226 182.82106,26.476756 182.750386,26.2973507 C182.679711,26.1179454 182.519336,25.92767 182.269256,25.7265186 C182.019176,25.5253673 181.652216,25.2970367 181.168365,25.0415201 C180.684515,24.7860035 180.03486,24.4734081 179.219381,24.1037245 C178.425649,23.744914 177.737939,23.388827 177.156231,23.035453 C176.574523,22.682079 176.096116,22.2879369 175.720996,21.8530151 C175.345876,21.4180932 175.065899,20.9206588 174.881057,20.3606969 C174.696216,19.800735 174.603796,19.1347708 174.603796,18.3627845 C174.603796,17.5146869 174.766889,16.7726125 175.093081,16.1365393 C175.419272,15.5004661 175.88137,14.970413 176.479387,14.5463642 C177.077405,14.1223153 177.797733,13.8042835 178.640395,13.5922591 C179.483056,13.3802347 180.420842,13.2742241 181.453781,13.2742241 C182.541086,13.2742241 183.57401,13.3992622 184.552584,13.6493423 C185.531158,13.8994224 186.5369,14.2745369 187.56984,14.774697 L186.069367,18.2975465 C185.243015,17.9061169 184.454731,17.5853668 183.704491,17.3352867 C182.954251,17.0852066 182.204022,16.9601685 181.453781,16.9601685 C180.779652,16.9601685 180.293091,17.0797702 179.994082,17.3189772 C179.695073,17.5581843 179.545571,17.8843708 179.545571,18.2975465 C179.545571,18.5150075 179.583626,18.7080012 179.659738,18.8765334 C179.735849,19.0450656 179.888069,19.2190318 180.116403,19.398437 C180.344737,19.5778423 180.665487,19.7735542 181.078663,19.9855786 C181.491839,20.197603 182.030047,20.455834 182.693302,20.7602793 C183.465289,21.0973438 184.161153,21.431685 184.780917,21.7633129 C185.400681,22.0949408 185.933452,22.4727735 186.379247,22.8968223 C186.825042,23.3208712 187.167538,23.8155874 187.406745,24.3809858 C187.645952,24.9463842 187.765553,25.6313759 187.765553,26.4359814 Z M187.765553,26.4359814" id="Hipcharts" fill="#FFFFFF"></path>
        </g>
    </g>
</svg>